<svg xmlns="http://www.w3.org/2000/svg" viewBox="0 0 64 64" fill="none">
  <circle cx="32" cy="32" r="30" fill="#0c4a6e"/>
  <path d="M16 32c0-4 2-8 6-10s8-3 12-1c4-2 8-1 12 1s6 6 6 10-2 8-6 10-8 3-12 1c-4 2-8 1-12-1s-6-6-6-10z" fill="#0ea5e9" opacity="0.8"/>
  <circle cx="44" cy="28" r="2" fill="#fff" opacity="0.9"/>
  <circle cx="44" cy="28" r="1" fill="#0c4a6e"/>
  <path d="M36 34c-2 1-4 1-6 0" stroke="#fff" stroke-width="1.5" stroke-linecap="round" opacity="0.6"/>
  <path d="M20 36l-4 6M44 36l4 6" stroke="#0ea5e9" stroke-width="1.5" stroke-linecap="round" opacity="0.5"/>
</svg>
